<svg width="63" height="37" viewBox="0 0 63 37" fill="none" xmlns="http://www.w3.org/2000/svg">
<path d="M4.41401 7.258C4.23401 6.838 4.01801 6.25 3.76601 5.494C3.52601 4.738 3.32201 3.97 3.15401 3.19H3.13601C3.17201 4.282 3.19001 5.278 3.19001 6.178V6.79L3.17201 10.048C3.17201 10.792 3.14201 11.332 3.08201 11.668C3.47801 11.632 3.93401 11.614 4.45001 11.614V13H0.346008V11.812C0.670008 11.8 0.916008 11.764 1.08401 11.704C1.25201 11.632 1.38401 11.488 1.48001 11.272C1.57601 11.056 1.62401 10.714 1.62401 10.246L1.73201 3.352C1.75601 2.476 1.78001 1.936 1.80401 1.732L0.454008 1.786V0.399999H4.43201L7.15001 7.366C7.33001 7.834 7.52201 8.35 7.72601 8.914C7.93001 9.478 8.07401 9.91 8.15801 10.21H8.17601C8.22401 10.09 8.35601 9.718 8.57201 9.094C8.74001 8.602 8.89001 8.182 9.02201 7.834L11.812 0.399999H15.97V1.588C15.646 1.6 15.394 1.642 15.214 1.714C15.034 1.774 14.896 1.912 14.8 2.128C14.704 2.344 14.662 2.686 14.674 3.154L14.944 10.048C14.98 10.66 14.956 11.2 14.872 11.668C15.268 11.632 15.724 11.614 16.24 11.614V13H11.236V11.812C11.56 11.8 11.806 11.764 11.974 11.704C12.154 11.632 12.292 11.488 12.388 11.272C12.484 11.056 12.526 10.714 12.514 10.246L12.37 6.43L12.334 5.746C12.274 4.582 12.238 3.772 12.226 3.316H12.208L8.51801 13.18H6.84401L4.41401 7.258ZM23.9203 13.288C22.0363 13.288 20.6983 12.79 19.9063 11.794C19.1263 10.786 18.7363 9.424 18.7363 7.708V3.352C18.7363 2.68 18.7603 2.14 18.8083 1.732L17.4583 1.786V0.399999H22.6243V1.588C22.3123 1.6 22.0663 1.642 21.8863 1.714C21.7183 1.774 21.5863 1.912 21.4903 2.128C21.3943 2.344 21.3463 2.686 21.3463 3.154V8.104C21.3463 10.648 22.3543 11.92 24.3703 11.92C25.3183 11.92 26.0503 11.596 26.5663 10.948C27.0943 10.3 27.3583 9.34 27.3583 8.068V3.352C27.3583 2.548 27.3823 2.008 27.4303 1.732L26.0623 1.786V0.399999H30.2383V1.588C29.9143 1.6 29.6683 1.642 29.5003 1.714C29.3323 1.774 29.2003 1.912 29.1043 2.128C29.0083 2.344 28.9603 2.686 28.9603 3.154V7.654C28.9603 9.622 28.5043 11.056 27.5923 11.956C26.6923 12.844 25.4683 13.288 23.9203 13.288ZM36.192 13.288C35.7 13.288 35.172 13.21 34.608 13.054C34.056 12.898 33.546 12.682 33.078 12.406H33.06L33.114 13.162H31.728V8.95H32.916C33.072 9.934 33.45 10.69 34.05 11.218C34.65 11.734 35.382 11.992 36.246 11.992C36.87 11.992 37.386 11.83 37.794 11.506C38.202 11.17 38.406 10.768 38.406 10.3C38.406 9.916 38.268 9.586 37.992 9.31C37.728 9.034 37.428 8.818 37.092 8.662C36.768 8.506 36.246 8.284 35.526 7.996C34.206 7.468 33.192 6.868 32.484 6.196C31.788 5.524 31.44 4.642 31.44 3.55C31.44 2.998 31.578 2.464 31.854 1.948C32.13 1.42 32.58 0.982 33.204 0.634C33.84 0.286 34.656 0.112 35.652 0.112C36.168 0.112 36.708 0.19 37.272 0.346C37.836 0.49 38.304 0.7 38.676 0.976H38.694L38.622 0.237999H40.026V4.432H38.838C38.682 3.448 38.334 2.698 37.794 2.182C37.266 1.666 36.588 1.408 35.76 1.408C35.22 1.408 34.752 1.558 34.356 1.858C33.972 2.146 33.78 2.512 33.78 2.956C33.78 3.484 34.002 3.928 34.446 4.288C34.89 4.648 35.64 5.044 36.696 5.476C37.908 5.956 38.892 6.514 39.648 7.15C40.416 7.774 40.8 8.608 40.8 9.652C40.8 10.36 40.608 10.99 40.224 11.542C39.84 12.094 39.3 12.526 38.604 12.838C37.908 13.138 37.104 13.288 36.192 13.288ZM42.3239 11.812C42.6479 11.8 42.8939 11.764 43.0619 11.704C43.2299 11.632 43.3619 11.488 43.4579 11.272C43.5539 11.056 43.6019 10.714 43.6019 10.246V3.352C43.6019 2.68 43.6259 2.14 43.6739 1.732L42.3239 1.786V0.399999H47.4899V1.588C47.1659 1.6 46.9199 1.642 46.7519 1.714C46.5839 1.774 46.4519 1.912 46.3559 2.128C46.2599 2.344 46.2119 2.686 46.2119 3.154V10.048C46.2119 10.72 46.1879 11.26 46.1399 11.668C46.5239 11.632 46.9739 11.614 47.4899 11.614V13H42.3239V11.812ZM54.978 13.288C53.766 13.288 52.692 13.006 51.756 12.442C50.82 11.878 50.094 11.11 49.5779 10.138C49.0619 9.154 48.8039 8.068 48.8039 6.88C48.8039 5.74 49.0439 4.654 49.5239 3.622C50.016 2.578 50.736 1.732 51.684 1.084C52.632 0.436 53.772 0.112 55.104 0.112C55.584 0.112 56.1 0.19 56.652 0.346C57.216 0.502 57.732 0.718 58.2 0.994H58.218L58.146 0.237999H59.532V4.432H58.362C58.038 2.44 57.03 1.432 55.338 1.408C54.534 1.408 53.85 1.648 53.286 2.128C52.734 2.596 52.32 3.22 52.044 4C51.768 4.78 51.63 5.62 51.63 6.52C51.63 7.552 51.78 8.47 52.08 9.274C52.38 10.078 52.812 10.708 53.376 11.164C53.94 11.608 54.618 11.83 55.41 11.83C56.178 11.83 56.928 11.632 57.66 11.236C58.404 10.84 59.028 10.3 59.532 9.616L60.396 10.408C59.604 11.5 58.734 12.256 57.786 12.676C56.838 13.084 55.902 13.288 54.978 13.288ZM7.77321 32.1052C7.77321 33.4822 7.39071 34.5991 6.62576 35.4558C5.86076 36.305 4.88925 36.7295 3.71119 36.7295C2.37248 36.7295 1.2977 36.5344 0.486825 36.1443V34.928C0.884613 35.1498 1.37802 35.3258 1.96705 35.4558C2.55608 35.5859 3.13746 35.6509 3.71119 35.6509C4.56796 35.6509 5.27176 35.3258 5.82251 34.6756C6.37331 34.0253 6.64871 33.1992 6.64871 32.197C6.64871 31.2714 6.45361 30.5371 6.06351 29.9939C5.67336 29.4508 4.9275 28.9077 3.82594 28.3645C2.96151 27.9285 2.31511 27.5078 1.88673 27.1023C1.45834 26.6892 1.14088 26.2111 0.934333 25.668C0.727793 25.1249 0.624518 24.4746 0.624518 23.7173C0.624518 22.8911 0.792813 22.1568 1.1294 21.5142C1.46599 20.8716 1.93645 20.3744 2.54078 20.0225C3.14511 19.6629 3.80681 19.4832 4.52589 19.4832C5.17611 19.4832 5.76516 19.5559 6.29296 19.7012C6.82846 19.8465 7.24921 20.0034 7.55521 20.1717L7.11916 21.2503C6.27001 20.8142 5.40561 20.5962 4.52589 20.5962C3.69971 20.5962 3.02654 20.8793 2.50636 21.4453C1.99382 22.0038 1.73756 22.7458 1.73756 23.6714C1.73756 24.6123 1.92497 25.3429 2.29981 25.8631C2.67465 26.3832 3.40902 26.9226 4.50294 27.481C5.63511 28.0318 6.46126 28.6782 6.98146 29.4202C7.50931 30.1546 7.77321 31.0496 7.77321 32.1052ZM18.7315 36.5H17.607V28.2498H11.7549V36.5H10.6304V19.7241H11.7549V27.1712H17.607V19.7241H18.7315V36.5ZM27.1424 20.5388C25.8802 20.5388 24.8742 21.2082 24.1245 22.5469C23.3825 23.878 23.0115 25.7254 23.0115 28.0891C23.0115 29.6267 23.1836 30.9654 23.5279 32.1052C23.8721 33.2451 24.3655 34.121 25.0081 34.7329C25.6507 35.3449 26.3965 35.6509 27.2456 35.6509C28.1177 35.6509 28.8674 35.4941 29.4947 35.1804V36.2132C28.898 36.5574 28.1139 36.7295 27.1424 36.7295C26.079 36.7295 25.1458 36.3853 24.3426 35.6968C23.547 35.0083 22.9312 34.0139 22.4951 32.7134C22.0591 31.4053 21.8411 29.8562 21.8411 28.0662C21.8411 25.3888 22.3154 23.2851 23.2639 21.7552C24.2202 20.2252 25.5206 19.4602 27.1653 19.4602C28.1904 19.4602 29.0854 19.6974 29.8504 20.1717L29.334 21.1585C28.6914 20.7454 27.9609 20.5388 27.1424 20.5388ZM41.3823 28.0891C41.3823 30.866 40.9654 33.0003 40.1316 34.492C39.3054 35.9837 38.1083 36.7295 36.5401 36.7295C34.9566 36.7295 33.7556 35.9798 32.937 34.4805C32.1185 32.9735 31.7093 30.8354 31.7093 28.0662C31.7093 25.1746 32.1147 23.0212 32.9256 21.606C33.7364 20.1908 34.9527 19.4832 36.5745 19.4832C38.135 19.4832 39.3246 20.229 40.1431 21.7207C40.9693 23.2048 41.3823 25.3276 41.3823 28.0891ZM32.8797 28.0891C32.8797 30.583 33.1895 32.4686 33.8091 33.7461C34.4364 35.016 35.3467 35.6509 36.5401 35.6509C37.7411 35.6509 38.6514 35.0198 39.271 33.7576C39.8983 32.4954 40.2119 30.6059 40.2119 28.0891C40.2119 25.603 39.9059 23.7288 39.294 22.4666C38.682 21.1967 37.7755 20.5618 36.5745 20.5618C35.3429 20.5618 34.4173 21.2044 33.7976 22.4895C33.1857 23.767 32.8797 25.6336 32.8797 28.0891ZM53.6145 28.0891C53.6145 30.866 53.1975 33.0003 52.3635 34.492C51.5375 35.9837 50.34 36.7295 48.772 36.7295C47.1885 36.7295 45.9875 35.9798 45.169 34.4805C44.3504 32.9735 43.9412 30.8354 43.9412 28.0662C43.9412 25.1746 44.3466 23.0212 45.1575 21.606C45.9684 20.1908 47.1847 19.4832 48.8064 19.4832C50.367 19.4832 51.5565 20.229 52.375 21.7207C53.201 23.2048 53.6145 25.3276 53.6145 28.0891ZM45.1116 28.0891C45.1116 30.583 45.4214 32.4686 46.041 33.7461C46.6683 35.016 47.5786 35.6509 48.772 35.6509C49.973 35.6509 50.8835 35.0198 51.503 33.7576C52.13 32.4954 52.444 30.6059 52.444 28.0891C52.444 25.603 52.138 23.7288 51.526 22.4666C50.914 21.1967 50.0075 20.5618 48.8064 20.5618C47.5748 20.5618 46.6492 21.2044 46.0296 22.4895C45.4176 23.767 45.1116 25.6336 45.1116 28.0891ZM56.7355 36.5V19.7241H57.86V35.4214H62.5875V36.5H56.7355Z" fill="#29304E"/>
</svg>
