<svg width="126" height="74" viewBox="0 0 126 74" fill="none" xmlns="http://www.w3.org/2000/svg">
<path d="M8.828 14.516C8.468 13.676 8.036 12.5 7.532 10.988C7.052 9.476 6.644 7.94 6.308 6.38H6.272C6.344 8.564 6.38 10.556 6.38 12.356V13.58L6.344 20.096C6.344 21.584 6.284 22.664 6.164 23.336C6.956 23.264 7.868 23.228 8.9 23.228V26H0.692V23.624C1.34 23.6 1.832 23.528 2.168 23.408C2.504 23.264 2.768 22.976 2.96 22.544C3.152 22.112 3.248 21.428 3.248 20.492L3.464 6.704C3.512 4.952 3.56 3.872 3.608 3.464L0.908 3.572V0.799998H8.864L14.3 14.732C14.66 15.668 15.044 16.7 15.452 17.828C15.86 18.956 16.148 19.82 16.316 20.42H16.352C16.448 20.18 16.712 19.436 17.144 18.188C17.48 17.204 17.78 16.364 18.044 15.668L23.624 0.799998H31.94V3.176C31.292 3.2 30.788 3.284 30.428 3.428C30.068 3.548 29.792 3.824 29.6 4.256C29.408 4.688 29.324 5.372 29.348 6.308L29.888 20.096C29.96 21.32 29.912 22.4 29.744 23.336C30.536 23.264 31.448 23.228 32.48 23.228V26H22.472V23.624C23.12 23.6 23.612 23.528 23.948 23.408C24.308 23.264 24.584 22.976 24.776 22.544C24.968 22.112 25.052 21.428 25.028 20.492L24.74 12.86L24.668 11.492C24.548 9.164 24.476 7.544 24.452 6.632H24.416L17.036 26.36H13.688L8.828 14.516ZM47.8405 26.576C44.0725 26.576 41.3965 25.58 39.8125 23.588C38.2525 21.572 37.4725 18.848 37.4725 15.416V6.704C37.4725 5.36 37.5205 4.28 37.6165 3.464L34.9165 3.572V0.799998H45.2485V3.176C44.6245 3.2 44.1325 3.284 43.7725 3.428C43.4365 3.548 43.1725 3.824 42.9805 4.256C42.7885 4.688 42.6925 5.372 42.6925 6.308V16.208C42.6925 21.296 44.7085 23.84 48.7405 23.84C50.6365 23.84 52.1005 23.192 53.1325 21.896C54.1885 20.6 54.7165 18.68 54.7165 16.136V6.704C54.7165 5.096 54.7645 4.016 54.8605 3.464L52.1245 3.572V0.799998H60.4765V3.176C59.8285 3.2 59.3365 3.284 59.0005 3.428C58.6645 3.548 58.4005 3.824 58.2085 4.256C58.0165 4.688 57.9205 5.372 57.9205 6.308V15.308C57.9205 19.244 57.0085 22.112 55.1845 23.912C53.3845 25.688 50.9365 26.576 47.8405 26.576ZM72.384 26.576C71.4 26.576 70.344 26.42 69.216 26.108C68.112 25.796 67.092 25.364 66.156 24.812H66.12L66.228 26.324H63.456V17.9H65.832C66.144 19.868 66.9 21.38 68.1 22.436C69.3 23.468 70.764 23.984 72.492 23.984C73.74 23.984 74.772 23.66 75.588 23.012C76.404 22.34 76.812 21.536 76.812 20.6C76.812 19.832 76.536 19.172 75.984 18.62C75.456 18.068 74.856 17.636 74.184 17.324C73.536 17.012 72.492 16.568 71.052 15.992C68.412 14.936 66.384 13.736 64.968 12.392C63.576 11.048 62.88 9.284 62.88 7.1C62.88 5.996 63.156 4.928 63.708 3.896C64.26 2.84 65.16 1.964 66.408 1.268C67.68 0.571999 69.312 0.223999 71.304 0.223999C72.336 0.223999 73.416 0.379999 74.544 0.692C75.672 0.979999 76.608 1.4 77.352 1.952H77.388L77.244 0.475998H80.052V8.864H77.676C77.364 6.896 76.668 5.396 75.588 4.364C74.532 3.332 73.176 2.816 71.52 2.816C70.44 2.816 69.504 3.116 68.712 3.716C67.944 4.292 67.56 5.024 67.56 5.912C67.56 6.968 68.004 7.856 68.892 8.576C69.78 9.296 71.28 10.088 73.392 10.952C75.816 11.912 77.784 13.028 79.296 14.3C80.832 15.548 81.6 17.216 81.6 19.304C81.6 20.72 81.216 21.98 80.448 23.084C79.68 24.188 78.6 25.052 77.208 25.676C75.816 26.276 74.208 26.576 72.384 26.576ZM84.6477 23.624C85.2957 23.6 85.7877 23.528 86.1237 23.408C86.4597 23.264 86.7237 22.976 86.9157 22.544C87.1077 22.112 87.2037 21.428 87.2037 20.492V6.704C87.2037 5.36 87.2517 4.28 87.3477 3.464L84.6477 3.572V0.799998H94.9797V3.176C94.3317 3.2 93.8397 3.284 93.5037 3.428C93.1677 3.548 92.9037 3.824 92.7117 4.256C92.5197 4.688 92.4237 5.372 92.4237 6.308V20.096C92.4237 21.44 92.3757 22.52 92.2797 23.336C93.0477 23.264 93.9477 23.228 94.9797 23.228V26H84.6477V23.624ZM109.956 26.576C107.532 26.576 105.384 26.012 103.512 24.884C101.64 23.756 100.188 22.22 99.1557 20.276C98.1237 18.308 97.6077 16.136 97.6077 13.76C97.6077 11.48 98.0877 9.308 99.0477 7.244C100.032 5.156 101.472 3.464 103.368 2.168C105.264 0.871999 107.544 0.223999 110.208 0.223999C111.168 0.223999 112.2 0.379999 113.304 0.692C114.432 1.004 115.464 1.436 116.4 1.988H116.436L116.292 0.475998H119.064V8.864H116.724C116.076 4.88 114.06 2.864 110.676 2.816C109.068 2.816 107.7 3.296 106.572 4.256C105.468 5.192 104.64 6.44 104.088 8C103.536 9.56 103.26 11.24 103.26 13.04C103.26 15.104 103.56 16.94 104.16 18.548C104.76 20.156 105.624 21.416 106.752 22.328C107.88 23.216 109.236 23.66 110.82 23.66C112.356 23.66 113.856 23.264 115.32 22.472C116.808 21.68 118.056 20.6 119.064 19.232L120.792 20.816C119.208 23 117.468 24.512 115.572 25.352C113.676 26.168 111.804 26.576 109.956 26.576ZM15.5464 64.2104C15.5464 66.9644 14.7814 69.1981 13.2515 70.9116C11.7215 72.6099 9.77848 73.459 7.42236 73.459C4.74495 73.459 2.59538 73.0688 0.973633 72.2886V69.856C1.76921 70.2996 2.75602 70.6515 3.93408 70.9116C5.11214 71.1717 6.2749 71.3018 7.42236 71.3018C9.1359 71.3018 10.5435 70.6515 11.645 69.3511C12.7466 68.0506 13.2974 66.3983 13.2974 64.394C13.2974 62.5428 12.9072 61.0741 12.127 59.9878C11.3467 58.9015 9.85498 57.8153 7.65186 56.729C5.92301 55.8569 4.63021 55.0155 3.77344 54.2046C2.91667 53.3784 2.28174 52.4222 1.86865 51.3359C1.45557 50.2497 1.24902 48.9492 1.24902 47.4346C1.24902 45.7822 1.58561 44.3135 2.25879 43.0283C2.93197 41.7432 3.87288 40.7487 5.08154 40.0449C6.2902 39.3258 7.61361 38.9663 9.05176 38.9663C10.3522 38.9663 11.5303 39.1117 12.5859 39.4023C13.6569 39.693 14.4984 40.0067 15.1104 40.3433L14.2383 42.5005C12.54 41.6284 10.8112 41.1924 9.05176 41.1924C7.39941 41.1924 6.05306 41.7585 5.0127 42.8906C3.98763 44.0075 3.4751 45.4915 3.4751 47.3428C3.4751 49.2246 3.84993 50.6857 4.59961 51.7261C5.34928 52.7664 6.81803 53.8451 9.00586 54.9619C11.2702 56.0635 12.9225 57.3563 13.9629 58.8403C15.0186 60.3091 15.5464 62.0991 15.5464 64.2104ZM37.4629 73H35.2139V56.4995H23.5098V73H21.2607V39.4482H23.5098V54.3423H35.2139V39.4482H37.4629V73ZM54.2847 41.0776C51.7603 41.0776 49.7484 42.4163 48.249 45.0938C46.765 47.7559 46.0229 51.4507 46.0229 56.1782C46.0229 59.2534 46.3672 61.9308 47.0557 64.2104C47.7441 66.4901 48.731 68.2419 50.0161 69.4658C51.3013 70.6898 52.793 71.3018 54.4912 71.3018C56.2354 71.3018 57.7347 70.9881 58.9893 70.3608V72.4263C57.7959 73.1147 56.2277 73.459 54.2847 73.459C52.158 73.459 50.2915 72.7705 48.6851 71.3936C47.0939 70.0166 45.8623 68.0277 44.9902 65.4268C44.1182 62.8105 43.6821 59.7124 43.6821 56.1323C43.6821 50.7775 44.6307 46.5701 46.5278 43.5103C48.4403 40.4504 51.0412 38.9204 54.3306 38.9204C56.3807 38.9204 58.1707 39.3947 59.7007 40.3433L58.668 42.3169C57.3828 41.4907 55.9217 41.0776 54.2847 41.0776ZM82.7646 56.1782C82.7646 61.7319 81.9308 66.0005 80.2632 68.9839C78.6108 71.9673 76.2165 73.459 73.0801 73.459C69.9131 73.459 67.5111 71.9596 65.874 68.9609C64.237 65.9469 63.4185 61.6707 63.4185 56.1323C63.4185 50.3491 64.2293 46.0423 65.8511 43.2119C67.4728 40.3815 69.9054 38.9663 73.1489 38.9663C76.27 38.9663 78.6491 40.458 80.2861 43.4414C81.9385 46.4095 82.7646 50.6551 82.7646 56.1782ZM65.7593 56.1782C65.7593 61.1659 66.3789 64.9372 67.6182 67.4922C68.8727 70.0319 70.6934 71.3018 73.0801 71.3018C75.4821 71.3018 77.3027 70.0396 78.542 67.5151C79.7965 64.9907 80.4238 61.2118 80.4238 56.1782C80.4238 51.2059 79.8118 47.4575 78.5879 44.9331C77.3639 42.3934 75.5509 41.1235 73.1489 41.1235C70.6857 41.1235 68.8345 42.4087 67.5952 44.979C66.3713 47.534 65.7593 51.2671 65.7593 56.1782ZM107.229 56.1782C107.229 61.7319 106.395 66.0005 104.727 68.9839C103.075 71.9673 100.68 73.459 97.5439 73.459C94.377 73.459 91.9749 71.9596 90.3379 68.9609C88.7008 65.9469 87.8823 61.6707 87.8823 56.1323C87.8823 50.3491 88.6932 46.0423 90.3149 43.2119C91.9367 40.3815 94.3693 38.9663 97.6128 38.9663C100.734 38.9663 103.113 40.458 104.75 43.4414C106.402 46.4095 107.229 50.6551 107.229 56.1782ZM90.2231 56.1782C90.2231 61.1659 90.8428 64.9372 92.082 67.4922C93.3366 70.0319 95.1572 71.3018 97.5439 71.3018C99.946 71.3018 101.767 70.0396 103.006 67.5151C104.26 64.9907 104.888 61.2118 104.888 56.1782C104.888 51.2059 104.276 47.4575 103.052 44.9331C101.828 42.3934 100.015 41.1235 97.6128 41.1235C95.1496 41.1235 93.2983 42.4087 92.0591 44.979C90.8351 47.534 90.2231 51.2671 90.2231 56.1782ZM113.471 73V39.4482H115.72V70.8428H125.175V73H113.471Z" fill="#29304E"/>
</svg>
