<svg width="96" height="82" viewBox="0 0 96 82" fill="none" xmlns="http://www.w3.org/2000/svg">
<path opacity="0.1" d="M29.63 6.4C26.3433 10.6533 23.25 16.6467 20.35 24.38C17.45 32.1133 16 39.75 16 47.29C16 49.61 16.0967 51.35 16.29 52.51C18.8033 51.35 21.22 50.77 23.54 50.77C27.4067 50.77 30.5967 52.1233 33.11 54.83C35.6233 57.5367 36.88 60.92 36.88 64.98C36.88 70.2 35.3333 74.3567 32.24 77.45C29.1467 80.35 25.3767 81.8 20.93 81.8C14.55 81.8 9.52334 79.3833 5.85 74.55C2.17667 69.5233 0.340001 63.1433 0.340001 55.41C0.340001 47.4833 2.37 37.9133 6.43 26.7C10.6833 15.4867 15.8067 6.78665 21.8 0.599985L29.63 6.4ZM66.3535 76C69.6402 71.7467 72.7335 65.7533 75.6335 58.02C78.5335 50.2867 79.9835 42.65 79.9835 35.11C79.9835 32.79 79.8868 31.05 79.6935 29.89C77.1802 31.05 74.7635 31.63 72.4435 31.63C68.5768 31.63 65.3868 30.2767 62.8735 27.57C60.3602 24.8633 59.1035 21.48 59.1035 17.42C59.1035 12.2 60.6502 8.13999 63.7435 5.23999C66.8368 2.14666 70.6069 0.599985 75.0535 0.599985C81.4335 0.599985 86.4602 3.11332 90.1335 8.13999C93.8069 12.9733 95.6435 19.2567 95.6435 26.99C95.6435 34.9167 93.5169 44.4867 89.2635 55.7C85.2035 66.9133 80.1769 75.6133 74.1835 81.8L66.3535 76Z" fill="#29304E"/>
</svg>
